<svg width="901" height="217" viewBox="0 0 901 217" version="1.1" xmlns="http://www.w3.org/2000/svg" xmlns:xlink="http://www.w3.org/1999/xlink">
<title>waves</title>
<desc>Created using Figma</desc>
<g id="Canvas" transform="translate(619 -44)">
<g id="waves">
<g id="Group">
<g id="Vector">
<use xlink:href="#path0_fill" transform="translate(-618.707 106.499)" fill="#DCAAFF"/>
</g>
<g id="Vector">
<use xlink:href="#path1_fill" transform="translate(-618.713 44)" fill="#F5EBFF"/>
</g>
<g id="Vector">
<use xlink:href="#path2_fill" transform="translate(-618.713 102.669)" fill="#AD37FF"/>
</g>
<g id="Vector">
<use xlink:href="#path3_fill" transform="translate(-165.867 144.5)" fill="#AD37FF"/>
</g>
<g id="Vector">
<use xlink:href="#path4_fill" transform="translate(-619 135.368)" fill="#9934FF"/>
</g>
<g id="Vector">
<use xlink:href="#path5_fill" transform="translate(-618.924 211.464)" fill="#8430FF"/>
</g>
</g>
</g>
</g>
<defs>
<path id="path0_fill" d="M 452.844 154.379L 452.844 30.597C 336.976 17.025 258.688 -9.52148e-06 139.7 -9.52148e-06C 87.806 -9.52148e-06 42.456 6.202 5.21254e-11 15.859L 5.21254e-11 154.372L 452.85 154.372"/>
<path id="path1_fill" d="M 900 216.878L 900 0.00199457C 668.463 -0.565005 671.744 120.658 450 120.658C 388.388 120.658 318.756 48.333 225.994 48.333C 133.232 48.333 42.638 110.828 0 105.409L 0 216.872L 900 216.872"/>
<path id="path2_fill" d="M 0 79.8205C 0 79.8205 87.75 45.9765 195.231 45.9765C 354.262 45.9765 355.375 86.6895 489.13 86.4385C 622.887 86.1875 735.58 0.219492 875.474 0.000491602C 885.697 -0.0155084 891.66 0.371478 899.999 0.636478C 900.075 0.371478 899.999 158.204 899.999 158.204L 0 158.204L 0 79.8175"/>
<path id="path3_fill" d="M 0.0039978 116.378L 447.154 116.378L 447.154 6.55896C 440.636 6.68996 435.11 6.84297 429.45 7.01797C 225.987 13.312 99.219 11.62 8.30078e-06 0L 0 116.38"/>
<path id="path4_fill" d="M 0.00600001 67.4027C 0.00600001 67.4027 37.9 72.9317 62.968 72.8827C 209.55 72.5937 246.337 0.250645 399.65 0.000645143C 552.968 -0.248355 561.531 70.0887 717.832 71.9007C 818.538 73.0677 900.457 36.1757 900.281 36.1757L 900.281 125.507L 0.281 125.507L -4.76979e-10 67.4007"/>
<path id="path5_fill" d="M 0.211111 49.414C 0.211111 49.414 -0.263889 16.627 0.211111 16.431C 5.60611 16.562 58.0671 36.86 194.661 36.86C 331.255 36.86 564.661 -1.31836e-05 708.073 -1.31836e-05C 851.486 -1.31836e-05 866.242 36.86 900.211 36.86L 900.211 49.416L 0.211111 49.414Z"/>
</defs>
</svg>
